<?xml version="1.0" encoding="UTF-8" standalone="no"?>
<svg
   viewBox="0 0 24 24"
   version="1.1"
   id="svg1"
   sodipodi:docname="close.svg"
   inkscape:version="1.3 (0e150ed6c4, 2023-07-21)"
   xmlns:inkscape="http://www.inkscape.org/namespaces/inkscape"
   xmlns:sodipodi="http://sodipodi.sourceforge.net/DTD/sodipodi-0.dtd"
   xmlns="http://www.w3.org/2000/svg"
   xmlns:svg="http://www.w3.org/2000/svg">
  <defs
     id="defs1" />
  <sodipodi:namedview
     id="namedview1"
     pagecolor="#ffffff"
     bordercolor="#000000"
     borderopacity="0.25"
     inkscape:showpageshadow="2"
     inkscape:pageopacity="0.0"
     inkscape:pagecheckerboard="0"
     inkscape:deskcolor="#d1d1d1"
     inkscape:zoom="36.625"
     inkscape:cx="11.918089"
     inkscape:cy="11.931741"
     inkscape:window-width="1908"
     inkscape:window-height="1016"
     inkscape:window-x="6"
     inkscape:window-y="6"
     inkscape:window-maximized="0"
     inkscape:current-layer="svg1" />
  <path
     id="path1"
     d="m 12,8 c -2.2099824,0 -4,1.7900176 -4,4 0,2.209984 1.7900176,4 4,4 2.209984,0 4,-1.790016 4,-4 C 16,9.7900176 14.209984,8 12,8 Z M 5.6289062,20.498047 c 6.253e-4,0.0066 0.00119,0.01284 0.00195,0.01953 0.00377,0.01326 0.00523,0.02886 0.011719,0.04102 0.0033,0.0062 -2.962e-4,-0.01469 -0.00195,-0.02148 -0.00319,-0.01304 -0.00803,-0.02616 -0.011719,-0.03906 z" />
  <path
     id="path2"
     style="fill:#ff0000;stroke-width:0.0273038"
     d="m 5.6289062,20.498047 c 6.253e-4,0.0066 0.00119,0.01284 0.00195,0.01953 0.00377,0.01326 0.00523,0.02886 0.011719,0.04102 0.0033,0.0062 -2.962e-4,-0.01469 -0.00195,-0.02148 -0.00319,-0.01304 -0.00803,-0.02616 -0.011719,-0.03906 z" />
  <path
     style="fill:#e67e80;fill-opacity:1;stroke-width:0.0343375"
     d="M 11.726475,17.451013 C 10.53793,17.377348 9.4317256,16.866338 8.5459755,15.981786 7.8050273,15.241838 7.3626623,14.408082 7.1514212,13.353367 c -0.093372,-0.466201 -0.084333,-1.389282 0.0183,-1.868875 0.294965,-1.378337 1.1083395,-2.5457962 2.2891944,-3.2857473 0.6439474,-0.4035115 1.5017734,-0.676696 2.2761494,-0.7248658 1.537815,-0.095659 2.923618,0.4434868 3.98142,1.5489694 0.670667,0.7008973 1.107956,1.5540337 1.306367,2.5486737 0.08515,0.426852 0.08515,1.354993 0,1.781845 -0.196351,0.984314 -0.63354,1.843067 -1.287882,2.529741 -0.614242,0.644591 -1.260861,1.055242 -2.097625,1.332147 -0.624055,0.206515 -1.212106,0.279066 -1.91087,0.235758 z"
     id="path3" />
  <path
     id="path4"
     style="fill:#e67e80;fill-opacity:1;stroke-width:0.0273038"
     d="m 5.6289062,20.498047 c 6.253e-4,0.0066 0.00119,0.01284 0.00195,0.01953 0.00377,0.01326 0.00523,0.02886 0.011719,0.04102 0.0033,0.0062 -2.962e-4,-0.01469 -0.00195,-0.02148 -0.00319,-0.01304 -0.00803,-0.02616 -0.011719,-0.03906 z" />
  <path
     style="fill:#e65029;stroke-width:0.0273038;fill-opacity:1"
     d="M 11.604096,17.429421 C 10.493377,17.300661 9.5499203,16.880968 8.778157,16.172313 8.003441,15.460947 7.5538007,14.75516 7.2872662,13.832108 7.1463468,13.344081 7.1128405,13.083841 7.1128987,12.477816 7.1129751,11.683048 7.2059359,11.201826 7.4878059,10.537063 7.7529878,9.9116571 8.093768,9.4132994 8.5973503,8.9144622 9.340231,8.1785815 10.18368,7.7419535 11.239485,7.5467093 c 0.528343,-0.097704 1.345652,-0.078259 1.920925,0.0457 1.324958,0.2855015 2.510914,1.1489243 3.234508,2.354848 0.275411,0.4589937 0.523952,1.1236147 0.614622,1.6435587 0.05954,0.341404 0.07964,0.959666 0.04441,1.365836 -0.08026,0.925296 -0.48797,1.909799 -1.096386,2.647444 -0.176098,0.213502 -0.568484,0.602041 -0.776675,0.769062 -0.676064,0.542372 -1.632854,0.938788 -2.524881,1.046106 -0.214361,0.02579 -0.863034,0.03205 -1.05191,0.01016 z"
     id="path5" />
  <path
     style="fill:#fb4934;stroke-width:0.0273038;fill-opacity:1"
     d="M 11.262799,17.364471 C 10.511952,17.231125 9.8291582,16.948264 9.2305737,16.522582 8.9610932,16.330942 8.3931249,15.786546 8.1589641,15.495448 7.6674816,14.88446 7.3024686,14.067502 7.1783641,13.300706 7.1200929,12.94067 7.1212424,12.046836 7.1804867,11.650212 7.4400729,9.9123578 8.7933253,8.3200237 10.490811,7.7550468 c 0.531777,-0.1769922 0.798436,-0.2227782 1.390558,-0.2387621 0.724674,-0.019562 1.20948,0.041891 1.770508,0.2244271 0.322469,0.1049183 1.000386,0.4507985 1.296928,0.6617057 0.339175,0.2412282 0.972981,0.8746258 1.209285,1.208504 0.36067,0.5095975 0.704363,1.3079565 0.829729,1.9273655 0.03976,0.19642 0.04915,0.374769 0.04875,0.925877 -4.34e-4,0.604621 -0.0075,0.714566 -0.06171,0.962491 -0.143573,0.656361 -0.455613,1.378299 -0.817229,1.890751 -0.271823,0.385205 -0.90201,1.004442 -1.275018,1.252866 -0.616739,0.410748 -1.39193,0.71205 -2.109679,0.819993 -0.320075,0.04814 -1.176179,0.03351 -1.510128,-0.02579 z"
     id="path6" />
</svg>
