<?xml version="1.0" encoding="UTF-8" standalone="no"?>
<svg
   viewBox="0 0 24 24"
   version="1.1"
   id="svg1"
   sodipodi:docname="min.svg"
   inkscape:version="1.3 (0e150ed6c4, 2023-07-21)"
   xmlns:inkscape="http://www.inkscape.org/namespaces/inkscape"
   xmlns:sodipodi="http://sodipodi.sourceforge.net/DTD/sodipodi-0.dtd"
   xmlns="http://www.w3.org/2000/svg"
   xmlns:svg="http://www.w3.org/2000/svg">
  <defs
     id="defs1" />
  <sodipodi:namedview
     id="namedview1"
     pagecolor="#ffffff"
     bordercolor="#000000"
     borderopacity="0.25"
     inkscape:showpageshadow="2"
     inkscape:pageopacity="0.0"
     inkscape:pagecheckerboard="0"
     inkscape:deskcolor="#d1d1d1"
     inkscape:zoom="36.625"
     inkscape:cx="11.931741"
     inkscape:cy="11.931741"
     inkscape:window-width="951"
     inkscape:window-height="1016"
     inkscape:window-x="6"
     inkscape:window-y="6"
     inkscape:window-maximized="0"
     inkscape:current-layer="svg1" />
  <path
     id="path1"
     d="m 12,8 c -2.2099978,0 -4,1.7900022 -4,4 0,2.209998 1.7900022,4 4,4 2.209998,0 4,-1.790002 4,-4 0,-2.2099978 -1.790002,-4 -4,-4 z" />
  <path
     style="fill:#e67e80;stroke-width:0.0273038;fill-opacity:1"
     d="M 11.713311,15.969403 C 10.768865,15.910788 9.889848,15.504177 9.1860096,14.800339 8.5972342,14.211563 8.2457202,13.548143 8.0778629,12.708907 8.0036671,12.337951 8.0108495,11.603455 8.0924045,11.221843 8.3267909,10.125101 8.973118,9.1961541 9.9114543,8.6073751 10.42315,8.2863011 11.104799,8.0689282 11.720137,8.0305995 c 1.221985,-0.076116 2.323178,0.3528824 3.163733,1.2325147 0.532928,0.557704 0.880409,1.2365438 1.038071,2.0279788 0.06766,0.339646 0.06766,1.078168 0,1.417814 -0.156025,0.783218 -0.503426,1.466528 -1.023382,2.012914 -0.488092,0.512901 -1.001911,0.839656 -1.666824,1.059989 -0.495889,0.164324 -0.963169,0.222053 -1.518424,0.187593 z"
     id="path3" />
  <path
     style="fill:#e4c998;fill-opacity:1;stroke-width:0.0345157"
     d="M 11.676032,17.245162 C 10.506177,17.12709 9.501949,16.66842 8.6561452,15.865862 7.7229868,14.980417 7.1790967,13.869472 7.1006526,12.688628 7.0202817,11.478782 7.2644538,10.49807 7.8839985,9.542333 8.6390364,8.377578 9.753583,7.6238331 11.154166,7.3307857 c 0.451362,-0.094439 1.302387,-0.104076 1.765715,-0.019994 0.768055,0.1393816 1.556347,0.4732456 2.125574,0.90024 0.395449,0.2966393 0.977106,0.9040576 1.224051,1.2782643 0.36246,0.549253 0.643381,1.232861 0.761086,1.852068 0.0626,0.329316 0.07556,1.416835 0.02034,1.706891 -0.15913,0.835848 -0.483701,1.584208 -0.956489,2.205365 -0.265663,0.349032 -0.880029,0.929644 -1.228592,1.16109 -0.529666,0.351699 -1.244675,0.640044 -1.889729,0.76208 -0.290362,0.05493 -1.04173,0.09445 -1.300085,0.06837 z"
     id="path7" />
  <path
     style="fill:#e89440;stroke-width:0.0273038;fill-opacity:1"
     d="M 11.276451,17.177903 C 10.174017,16.974989 9.2897574,16.495918 8.4910481,15.668836 7.6355456,14.782944 7.1721962,13.753009 7.1168819,12.614334 7.0569466,11.380534 7.2982299,10.460321 7.930824,9.5100974 8.4491208,8.731561 9.0689809,8.1831718 9.883959,7.782162 11.133814,7.1671709 12.524656,7.0944426 13.8157,7.576568 c 0.819261,0.3059437 1.438317,0.7382516 2.047781,1.4300357 0.303182,0.3441321 0.517845,0.6630656 0.70997,1.0548293 0.40314,0.822048 0.533902,1.489282 0.495363,2.527668 -0.0135,0.363795 -0.02951,0.478817 -0.110697,0.795605 -0.228056,0.889811 -0.618782,1.615571 -1.194293,2.218353 -0.66772,0.699362 -1.269048,1.091088 -2.111947,1.375797 -0.547247,0.184845 -0.787826,0.223177 -1.488054,0.237093 -0.516591,0.01027 -0.657777,0.0042 -0.887372,-0.03805 z"
     id="path2" />
  <path
     style="fill:#e5b684;stroke-width:0.0273038;fill-opacity:1"
     d="M 11.139932,17.136878 C 9.9829829,16.888231 9.0254826,16.3017 8.2365386,15.358362 7.7122082,14.731421 7.3755368,14.053159 7.2207536,13.311949 7.0561886,12.523897 7.1006778,11.527487 7.334191,10.771331 7.6281697,9.8193776 8.3710748,8.7936462 9.1882213,8.2114656 9.5216545,7.9739092 10.154914,7.6553324 10.547984,7.5274036 c 1.265204,-0.4117741 2.579278,-0.3091411 3.786487,0.2957356 0.592085,0.2966667 1.12291,0.7235145 1.586103,1.2754196 0.514431,0.6129572 0.894641,1.3880982 1.053502,2.1477902 0.07941,0.379726 0.10157,1.437054 0.03783,1.804753 -0.126098,0.727467 -0.424793,1.445044 -0.858119,2.061526 -0.207432,0.295108 -0.883548,0.965915 -1.204985,1.195522 -0.307225,0.219457 -0.911343,0.524645 -1.30625,0.659892 -0.518876,0.177705 -0.729221,0.208669 -1.506036,0.221702 -0.653814,0.01097 -0.71455,0.0077 -0.996587,-0.05287 z"
     id="path4" />
  <path
     style="fill:#d79921;stroke-width:0.0273038;fill-opacity:1"
     d="M 11.067812,17.107779 C 9.7821115,16.802541 8.7008621,16.053195 7.9423236,14.9417 7.2410183,13.91407 6.9964754,12.732543 7.2091499,11.399317 7.320794,10.699437 7.525626,10.187667 7.9510348,9.5457304 8.3775647,8.9021019 8.9117744,8.379415 9.4921788,8.0378288 10.748599,7.2983861 12.041819,7.1095771 13.377066,7.4706389 c 1.703143,0.4605438 3.084455,1.8524156 3.524955,3.5519021 0.159634,0.615881 0.180929,1.707197 0.04438,2.274387 -0.147674,0.613406 -0.395145,1.187959 -0.729583,1.693871 -0.238178,0.360297 -1.001662,1.122056 -1.363577,1.360496 -0.32297,0.212782 -0.880964,0.487506 -1.248311,0.614596 -0.474186,0.164052 -0.644087,0.186502 -1.495716,0.197634 -0.731401,0.0096 -0.776495,0.0071 -1.041403,-0.05575 z"
     id="path5" />
</svg>
