<?xml version="1.0" encoding="UTF-8" standalone="no"?>
<svg
   viewBox="0 0 24 24"
   version="1.1"
   id="svg1"
   sodipodi:docname="normal.svg"
   inkscape:version="1.3 (0e150ed6c4, 2023-07-21)"
   xmlns:inkscape="http://www.inkscape.org/namespaces/inkscape"
   xmlns:sodipodi="http://sodipodi.sourceforge.net/DTD/sodipodi-0.dtd"
   xmlns="http://www.w3.org/2000/svg"
   xmlns:svg="http://www.w3.org/2000/svg">
  <defs
     id="defs1" />
  <sodipodi:namedview
     id="namedview1"
     pagecolor="#ffffff"
     bordercolor="#000000"
     borderopacity="0.25"
     inkscape:showpageshadow="2"
     inkscape:pageopacity="0.0"
     inkscape:pagecheckerboard="0"
     inkscape:deskcolor="#d1d1d1"
     inkscape:zoom="36.625"
     inkscape:cx="11.945392"
     inkscape:cy="11.986348"
     inkscape:window-width="1908"
     inkscape:window-height="1016"
     inkscape:window-x="6"
     inkscape:window-y="6"
     inkscape:window-maximized="0"
     inkscape:current-layer="svg1" />
  <path
     id="path1"
     d="m 12,8 c -2.2099978,0 -4,1.7900022 -4,4 0,2.209998 1.7900022,4 4,4 2.209998,0 4,-1.790002 4,-4 0,-2.2099978 -1.790002,-4 -4,-4 z" />
  <path
     style="fill:#e67e80;stroke-width:0.0273038;fill-opacity:1"
     d="M 11.713311,15.969403 C 10.768865,15.910788 9.889848,15.504177 9.1860096,14.800339 8.5972342,14.211563 8.2457202,13.548143 8.0778629,12.708907 8.0036671,12.337951 8.0108495,11.603455 8.0924045,11.221843 8.3267909,10.125101 8.973118,9.1961541 9.9114543,8.6073751 10.42315,8.2863011 11.104799,8.0689282 11.720137,8.0305995 c 1.221985,-0.076116 2.323178,0.3528824 3.163733,1.2325147 0.532928,0.557704 0.880409,1.2365438 1.038071,2.0279788 0.06766,0.339646 0.06766,1.078168 0,1.417814 -0.156025,0.783218 -0.503426,1.466528 -1.023382,2.012914 -0.488092,0.512901 -1.001911,0.839656 -1.666824,1.059989 -0.495889,0.164324 -0.963169,0.222053 -1.518424,0.187593 z"
     id="path3" />
  <path
     style="fill:#abb2bf;fill-opacity:1;stroke-width:0.0345157"
     d="M 11.324979,16.863794 C 10.155124,16.745722 9.1508964,16.287052 8.3050926,15.484494 7.3719342,14.599049 6.8280441,13.488104 6.7496,12.30726 6.6692291,11.097414 6.9134012,10.116702 7.5329459,9.1609654 8.2879838,7.9962104 9.4025304,7.2424655 10.803113,6.9494181 c 0.451362,-0.094439 1.302387,-0.104076 1.765715,-0.019994 0.768055,0.1393816 1.556347,0.4732456 2.125574,0.90024 0.395449,0.2966393 0.977106,0.9040576 1.224051,1.2782643 0.36246,0.549253 0.643381,1.2328606 0.761086,1.8520676 0.0626,0.329316 0.07556,1.416835 0.02034,1.706891 -0.15913,0.835848 -0.483701,1.584208 -0.956489,2.205365 -0.265663,0.349032 -0.880029,0.929644 -1.228592,1.16109 -0.529666,0.351699 -1.244675,0.640044 -1.889729,0.76208 -0.290362,0.05493 -1.04173,0.09445 -1.300085,0.06837 z"
     id="path7" />
  <path
     style="fill:#cccccc;stroke-width:0.0273038;fill-opacity:1"
     d="M 11.112628,16.827201 C 10.509894,16.723195 10.008128,16.568383 9.5786051,16.353903 8.2943579,15.712622 7.2694141,14.501041 6.9219581,13.213493 6.7115669,12.433859 6.6929897,11.552514 6.8701939,10.757679 7.1251744,9.6139853 7.8687505,8.5034313 8.8488057,7.8025616 9.3387331,7.4521984 10.089743,7.1221757 10.700409,6.9888959 11.2459,6.8698408 12.069738,6.8532388 12.592578,6.9507649 c 0.718888,0.1340952 1.535669,0.4777689 2.055886,0.8650466 0.388773,0.2894237 1.012406,0.9372649 1.258306,1.3071518 0.292457,0.439918 0.549915,1.0192657 0.700152,1.5755237 l 0.08604,0.318578 0.0016,0.832764 c 0.0016,0.829349 0.0013,0.833997 -0.0761,1.133106 -0.276486,1.068229 -0.78694,1.905049 -1.597223,2.61843 -0.414771,0.365169 -0.605853,0.494386 -1.055416,0.713714 -0.611785,0.298472 -1.101193,0.447813 -1.647944,0.502866 -0.272382,0.02743 -1.064735,0.03351 -1.205298,0.0093 z"
     id="path2" />
  <path
     style="fill:#a0a0a0;stroke-width:0.0273038;fill-opacity:1"
     d="m 10.83959,16.761483 c -0.180204,-0.03724 -0.47328,-0.1163 -0.651278,-0.175691 C 8.5528213,16.040101 7.1909399,14.537993 6.8692667,12.925 6.6360353,11.755488 6.7825841,10.640631 7.3023583,9.6302952 7.5772079,9.0960428 7.8925049,8.6786865 8.3544716,8.2376205 8.870013,7.7454038 9.5310427,7.3604105 10.279863,7.1162443 11.04337,6.8672895 12.115379,6.8313742 12.880412,7.0291186 13.457564,7.1783 14.090856,7.4533468 14.523568,7.742762 c 0.240212,0.1606635 0.856122,0.7443592 1.120617,1.0620043 0.402597,0.483499 0.711153,1.0900269 0.929363,1.8268467 0.09897,0.334175 0.100195,0.344311 0.105859,0.87372 0.0032,0.294592 -0.0028,0.719923 -0.01316,0.945179 -0.01677,0.363579 -0.03017,0.446314 -0.11941,0.736988 -0.31625,1.030138 -0.805408,1.777795 -1.621453,2.47832 -0.359324,0.308458 -0.571328,0.445783 -1.025019,0.663952 -0.788847,0.379337 -1.359268,0.502933 -2.309922,0.500501 -0.341165,-8.73e-4 -0.486726,-0.01421 -0.750854,-0.06879 z"
     id="path4" />
  <path
     style="fill:#ebdbb2;stroke-width:0.0273038;fill-opacity:1"
     d="M 11.082794,16.792498 C 10.867179,16.761724 10.406617,16.644983 10.144795,16.554739 9.4879549,16.32834 8.8465305,15.926472 8.3048643,15.401979 7.5303483,14.652017 7.0433005,13.780091 6.8641255,12.822728 6.79162,12.435318 6.7645344,11.662395 6.810249,11.285291 7.0224487,9.5348292 8.1791151,8.0066133 9.8197873,7.3090147 10.371328,7.074505 10.749403,6.9829901 11.378208,6.9317918 c 0.837963,-0.068228 1.596027,0.07078 2.441781,0.4477568 0.520339,0.2319297 0.725256,0.3693043 1.197108,0.8025312 0.362225,0.3325742 0.668169,0.6754402 0.868867,0.9737229 0.210758,0.3132363 0.473376,0.8719613 0.624595,1.3288393 l 0.140075,0.423208 0.01195,0.629084 c 0.01391,0.732474 -0.02299,1.279402 -0.105855,1.568868 -0.333057,1.163435 -1.017792,2.126984 -2.022728,2.846351 -0.515189,0.368789 -1.386603,0.717722 -2.02888,0.812407 -0.260402,0.03839 -1.217396,0.05719 -1.422325,0.02794 z"
     id="path5" />
</svg>
